<?xml version="1.0" encoding="UTF-8" standalone="no"?>
<svg xmlns="http://www.w3.org/2000/svg" version="1.1" viewBox="0 0 105 65">
 <path id="path4" d="m97.389 34.688c-.35947 0-.70815.01097-1.0518.02673.16317.82570.24889 1.6851.24889 2.5711 0 .88083-.0855 1.735-.24689 2.5567.34301.0157.69103.02633 1.0498.02633 4.2258 0 7.4603-1.1217 7.4603-2.5906s-3.2345-2.5902-7.4603-2.5902z"/>
 <path id="path6-0" d="m101.06 37.503c-4.0594-24.161-1.6209-26.773-.0796-26.78 1.5413.0072 3.7265 5.4125 0 26.78-3.7265 21.361-1.3676 26.788 0 26.788 1.3604 0 4.139-2.6194.0796-26.788z"/>
 <path id="path10-1" d="m12.967 25.81c1.8452 0 3.5746.38351 5.1086 1.0854.15196-4.4935 3.1911-8.618 8.0898-10.405 4.8119-1.7511 9.7107-.61506 12.735 2.6049 1.2012-3.7338 3.372-7.3373 6.5051-10.47 9.537-9.537 23.437-10.21 32.091-1.5557 4.8626 4.8626 6.7801 11.375 5.8394 17.844.28220-.02171.55717-.02894.83937-.02894 7.0333 0 12.41 5.3691 12.41 12.402 0 6.8742-5.1375 12.171-11.939 12.402v.01448c-27.091.47034-41.744.21708-72.736.07236-6.4617 0-10.89-5.55-10.89-12.019 0-6.7729 5.1737-11.947 11.947-11.947z" stroke="#000" stroke-linecap="round" stroke-width="2.0405" fill="none"/>
</svg>
